<svg width="128" height="128" viewBox="0 0 128 128" fill="none" xmlns="http://www.w3.org/2000/svg">
<rect width="128" height="128" rx="64" fill="#1765AB"/>
<path d="M47.3697 94.1995C48.0469 94.7931 48.8934 95.3966 49.8969 95.9951C50.9005 96.5937 52.0242 97.1407 53.2657 97.6239C54.5024 98.1023 55.8445 98.4948 57.2798 98.7989C58.7152 99.1007 60.2021 99.2503 61.743 99.2503C64.9032 99.2503 67.3593 98.6935 69.1063 97.5822C70.8508 96.4759 71.7292 94.9428 71.7292 92.9828C71.7292 91.8078 71.4347 90.8069 70.8532 89.9852C70.2644 89.1634 69.4547 88.4275 68.4217 87.7725C67.3887 87.1175 66.1742 86.5264 64.7805 85.9891C63.3844 85.4568 61.873 84.9024 60.2536 84.326C57.0149 83.1534 54.3355 81.9833 52.2058 80.8206C50.0785 79.6578 48.3855 78.3921 47.1342 77.0233C45.8804 75.652 44.9995 74.1115 44.4916 72.4017C43.9813 70.6944 43.7236 68.7148 43.7236 66.4703C43.7236 64.0933 44.2045 61.9051 45.1737 59.9108C46.1404 57.9165 47.4973 56.1871 49.2492 54.7423C50.9986 53.2925 53.0817 52.1641 55.4936 51.3546C57.9129 50.5475 60.5554 50.1403 63.4286 50.1403C66.2257 50.1403 68.6769 50.4126 70.7919 50.9597C72.9045 51.5067 74.7373 52.1543 76.2757 52.9074C77.8141 53.6629 79.0876 54.4356 80.0935 55.2304C81.102 56.0227 81.9019 56.663 82.5005 57.1585L77.5688 64.709C77.1222 64.265 76.4499 63.7547 75.5495 63.1807C74.649 62.6067 73.5964 62.0572 72.3966 61.5396C71.1943 61.0171 69.9012 60.578 68.5199 60.2248C67.1336 59.8691 65.762 59.6974 64.4027 59.6974C62.9968 59.6974 61.7552 59.8544 60.683 60.1684C59.6083 60.4848 58.7177 60.9043 57.9988 61.4415C57.2798 61.9763 56.7376 62.6116 56.3745 63.3426C56.0064 64.0736 55.8224 64.8562 55.8224 65.6926C55.8224 66.7131 56.0506 67.5889 56.5094 68.3174C56.9633 69.0509 57.6577 69.7156 58.5852 70.3191C59.5077 70.9176 60.6904 71.5039 62.1282 72.0804C63.5636 72.6568 65.2639 73.2971 67.2219 74.0036C70.1441 75.0461 72.6517 76.1353 74.7422 77.2735C76.8302 78.4117 78.5502 79.7069 79.8924 81.1566C81.2394 82.6064 82.2306 84.2524 82.871 86.0922C83.5114 87.9344 83.828 90.071 83.828 92.502C83.828 94.6975 83.3495 96.7825 82.3828 98.7499C81.416 100.725 80.0322 102.454 78.2313 103.943C76.4279 105.427 74.2343 106.612 71.6507 107.488C69.0621 108.363 66.1497 108.8 62.9133 108.8C60.3763 108.8 58.0331 108.574 55.8813 108.116C53.7246 107.659 51.7862 107.085 50.0638 106.391C48.3389 105.702 46.8324 104.944 45.5442 104.12C44.2463 103.3 43.1838 102.52 42.3496 101.792L47.3697 94.1995Z" fill="white"/>
<path d="M97.1785 30.3761C88.348 23.4536 76.5829 19.2197 63.6524 19.2C50.7292 19.1829 39.5702 23.9123 30.72 30.8103L33.8287 33.4743C41.7907 27.0522 52.5375 23.1249 64.359 23.1396C75.8149 23.1593 86.2551 26.8854 94.1189 32.9862L97.1785 30.3761Z" fill="white"/>
<path d="M42.3377 40.7625C48.0915 36.2857 55.7492 33.5628 64.1504 33.5775C72.289 33.5898 79.7185 36.1655 85.3938 40.4117L88.5393 37.7305C81.9219 32.692 73.1993 29.6208 63.64 29.606C54.0758 29.5913 45.3434 32.6331 38.7137 37.6569" fill="white"/>
<path d="M50.4864 47.7436C54.1153 45.1385 58.7993 43.5783 63.9126 43.5881C68.8738 43.593 73.4253 45.0796 77.0002 47.5572L80.2733 44.773C75.8543 41.5914 70.1472 39.6657 63.92 39.6559C57.5332 39.6486 51.6985 41.6429 47.228 44.952L50.4864 47.7436Z" fill="white"/>
</svg>
